<svg width="111" height="47" viewBox="0 0 111 47" fill="none" xmlns="http://www.w3.org/2000/svg">
<g clip-path="url(#clip0_246_5747)">
<path fill-rule="evenodd" clip-rule="evenodd" d="M40.5884 13.2067L51.2853 12.7373L55.6331 22.1244L59.9749 12.2032L71.3436 12.268L61.1127 31.3778L58.841 47L49.2114 46.8645L50.7487 32.4521L40.5884 13.2067Z" fill="#DCE6F2"/>
<path fill-rule="evenodd" clip-rule="evenodd" d="M72.6167 3.81962L82.5087 2.3448L85.3191 38.9503L75.7561 39.7535L72.6167 3.81962Z" fill="#DCE6F2"/>
<path fill-rule="evenodd" clip-rule="evenodd" d="M87.5967 5.96607L96.3548 5.70096L96.6231 42.5755L88.5955 42.8406L87.5967 5.96607Z" fill="#DCE6F2"/>
<path fill-rule="evenodd" clip-rule="evenodd" d="M98.8303 0.469352L108.728 0L111 37.0749L99.4981 37.9468L98.8303 0.469352Z" fill="#DCE6F2"/>
<path fill-rule="evenodd" clip-rule="evenodd" d="M0 8.81361C0 8.81361 18.9165 6.07408 20.728 18.8408C23.1624 36.0066 1.33761 41.9019 1.33761 41.9019L0 8.81361ZM6.96418 19.0412L6.9446 29.4769C6.9446 29.4769 12.1031 27.6289 13.0706 22.2481C14.2045 15.9207 6.96418 19.0431 6.96418 19.0431V19.0412Z" fill="#DCE6F2"/>
<path fill-rule="evenodd" clip-rule="evenodd" d="M23.8714 12.0696L32.5649 8.78415L46.4717 36.6075L38.5832 39.9637L35.4399 35.6707L32.9644 36.8117L32.8685 43.3002L22.9373 45.5939L23.8734 12.0696H23.8714ZM31.2998 24.2021L31.5034 28.222L33.7772 27.5523L31.3017 24.2001L31.2998 24.2021Z" fill="#DCE6F2"/>
</g>
<defs>
<clipPath id="clip0_246_5747">
<rect width="111" height="47" fill="white"/>
</clipPath>
</defs>
</svg>
