<svg width="890" height="974" viewBox="0 0 890 974" fill="none" xmlns="http://www.w3.org/2000/svg">
<path fill-rule="evenodd" clip-rule="evenodd" d="M9.32039 825.771L39.8058 837.666L87.233 834.268L108.398 898.647L35.5825 899.473L0 848.639L9.32039 825.771ZM135.485 675.891L167.136 548.637L292.136 771.587L304.854 755.516L318.641 779.695L328.252 758.721L359.417 775.034L366.699 747.651L400.777 753.186L410.68 658.947L399.66 631.855L393.641 740.757L362.427 730.949L355.631 760.566L323.01 745.32L318.398 765.664L163.544 470.42L216.359 283.737C216.359 283.737 220.68 271.162 228.883 261.258C237.039 251.305 247.282 247.323 247.282 247.323C247.282 247.323 244.66 238.73 244.806 233.341C245.097 224.164 249.806 217.464 249.806 217.464C249.806 217.464 240.388 217.464 233.689 214.988C229.66 213.483 218.204 209.356 215.631 204.986C213.058 200.568 213.592 183.623 215.049 180.516C219.66 170.757 253.155 160.464 253.155 160.464C253.155 160.464 264.563 156.58 269.272 157.405C273.155 158.085 282.816 162.649 282.816 162.649L346.262 121.817C346.262 121.817 356.99 114.194 366.019 111.281C368.592 110.407 381.65 110.261 399.709 110.844C446.359 112.398 520.874 115.991 541.99 117.933C544.466 118.175 547.815 119.729 552.524 126.284C557.233 132.838 560.049 140.169 560.049 140.169L598.155 226.64L566.651 310.053C566.651 310.053 575.631 308.353 579.272 318.403C581.408 324.278 631.65 472.167 631.65 472.167L627.961 608.598L613.883 622.193L646.99 698.128L656.796 849.464L645.194 878.207L677.33 895.103L689.563 917.194H669.806L673.204 936.712L648.349 934.624L649.854 950.549L585.971 922.341L304.417 930.934L313.252 949.578L287.913 943.509L287.233 966.28L260.534 950.792L259.951 974L154.126 962.979L101.505 823.78L91.0194 676.377L135.485 675.891ZM461.019 183.672L349.757 278.688L378.544 528.536L522.476 706.382L515.388 608.792L536.019 606.462L546.165 623.407L546.359 604.132L569.903 602.238L608.835 693.661L616.165 678.853L546.456 375.306L547.864 318.501L582.136 228.922L559.466 191.732L530.485 304.275L509.466 303.547L502.913 285.679L496.214 304.955L471.408 306.217L461.019 183.672ZM360.777 151.579C356.262 149.297 341.456 157.26 338.738 160.124C337.816 161.095 333.786 170.32 333.641 173.67C333.398 179.448 340.68 189.547 345.485 190.372C350.34 191.246 368.155 186.245 370.825 182.555C373.495 178.865 375.049 172.019 374.66 168.912C373.932 162.697 364.515 153.473 360.777 151.579ZM483.544 133.858L499.612 155.026L524.175 155.852L534.32 133.858H483.544ZM414.951 504.794L431.068 457.359L448.835 448.037L483.544 473.478L494.563 419.246L523.349 481.926L491.165 516.641L444.612 487.024L414.951 504.794ZM604.612 138.082L712.184 7.62265L812.913 0L604.612 138.082ZM426.796 36.4625L443.738 38.1618L444.563 93.2197L426.796 36.4625Z" fill="#DCE6F2"/>
</svg>
