<svg width="418" height="26" viewBox="0 0 418 26" fill="none" xmlns="http://www.w3.org/2000/svg">
<path d="M19.0221 1.132V5.79H12.6981V25H6.88414V5.79H0.560141V1.132H19.0221ZM27.754 5.79V10.618H35.54V15.106H27.754V20.342H36.56V25H21.94V1.132H36.56V5.79H27.754ZM39.3486 13.032C39.3486 10.6747 39.8586 8.578 40.8786 6.742C41.8986 4.88333 43.3152 3.444 45.1286 2.424C46.9646 1.38133 49.0386 0.859999 51.3506 0.859999C54.1839 0.859999 56.6092 1.608 58.6266 3.104C60.6439 4.6 61.9926 6.64 62.6726 9.224H56.2806C55.8046 8.22667 55.1246 7.46733 54.2406 6.946C53.3792 6.42467 52.3932 6.164 51.2826 6.164C49.4919 6.164 48.0412 6.78733 46.9306 8.034C45.8199 9.28067 45.2646 10.9467 45.2646 13.032C45.2646 15.1173 45.8199 16.7833 46.9306 18.03C48.0412 19.2767 49.4919 19.9 51.2826 19.9C52.3932 19.9 53.3792 19.6393 54.2406 19.118C55.1246 18.5967 55.8046 17.8373 56.2806 16.84H62.6726C61.9926 19.424 60.6439 21.464 58.6266 22.96C56.6092 24.4333 54.1839 25.17 51.3506 25.17C49.0386 25.17 46.9646 24.66 45.1286 23.64C43.3152 22.5973 41.8986 21.158 40.8786 19.322C39.8586 17.486 39.3486 15.3893 39.3486 13.032ZM86.905 1.132V25H81.091V15.174H72.047V25H66.233V1.132H72.047V10.482H81.091V1.132H86.905ZM112.454 25H106.64L96.9161 10.278V25H91.1021V1.132H96.9161L106.64 15.922V1.132H112.454V25ZM122.483 1.132V25H116.669V1.132H122.483ZM125.71 13.032C125.71 10.6747 126.22 8.578 127.24 6.742C128.26 4.88333 129.677 3.444 131.49 2.424C133.326 1.38133 135.4 0.859999 137.712 0.859999C140.545 0.859999 142.971 1.608 144.988 3.104C147.005 4.6 148.354 6.64 149.034 9.224H142.642C142.166 8.22667 141.486 7.46733 140.602 6.946C139.741 6.42467 138.755 6.164 137.644 6.164C135.853 6.164 134.403 6.78733 133.292 8.034C132.181 9.28067 131.626 10.9467 131.626 13.032C131.626 15.1173 132.181 16.7833 133.292 18.03C134.403 19.2767 135.853 19.9 137.644 19.9C138.755 19.9 139.741 19.6393 140.602 19.118C141.486 18.5967 142.166 17.8373 142.642 16.84H149.034C148.354 19.424 147.005 21.464 144.988 22.96C142.971 24.4333 140.545 25.17 137.712 25.17C135.4 25.17 133.326 24.66 131.49 23.64C129.677 22.5973 128.26 21.158 127.24 19.322C126.22 17.486 125.71 15.3893 125.71 13.032ZM167.452 20.784H158.544L157.116 25H151.03L159.666 1.132H166.398L175.034 25H168.88L167.452 20.784ZM165.956 16.296L162.998 7.558L160.074 16.296H165.956ZM183.477 20.512H191.093V25H177.663V1.132H183.477V20.512ZM215.929 20.784H207.021L205.593 25H199.507L208.143 1.132H214.875L223.511 25H217.357L215.929 20.784ZM214.433 16.296L211.475 7.558L208.551 16.296H214.433ZM238.311 25L233.347 15.99H231.953V25H226.139V1.132H235.897C237.779 1.132 239.377 1.46067 240.691 2.118C242.029 2.77533 243.026 3.682 243.683 4.838C244.341 5.97133 244.669 7.24067 244.669 8.646C244.669 10.2327 244.216 11.6493 243.309 12.896C242.425 14.1427 241.111 15.0267 239.365 15.548L244.873 25H238.311ZM231.953 11.876H235.557C236.623 11.876 237.416 11.6153 237.937 11.094C238.481 10.5727 238.753 9.836 238.753 8.884C238.753 7.97733 238.481 7.26333 237.937 6.742C237.416 6.22067 236.623 5.96 235.557 5.96H231.953V11.876ZM265.489 1.132V5.79H259.165V25H253.351V5.79H247.027V1.132H265.489ZM281.426 5.79V10.618H289.212V15.106H281.426V20.342H290.232V25H275.612V1.132H290.232V5.79H281.426ZM308.626 25L303.764 17.69L299.48 25H292.884L300.534 12.862L292.714 1.132H299.48L304.274 8.34L308.49 1.132H315.086L307.504 13.168L315.392 25H308.626ZM336.501 8.816C336.501 10.1987 336.184 11.468 335.549 12.624C334.914 13.7573 333.94 14.6753 332.625 15.378C331.31 16.0807 329.678 16.432 327.729 16.432H324.125V25H318.311V1.132H327.729C329.633 1.132 331.242 1.46067 332.557 2.118C333.872 2.77533 334.858 3.682 335.515 4.838C336.172 5.994 336.501 7.32 336.501 8.816ZM327.287 11.808C328.398 11.808 329.225 11.5473 329.769 11.026C330.313 10.5047 330.585 9.768 330.585 8.816C330.585 7.864 330.313 7.12733 329.769 6.606C329.225 6.08467 328.398 5.824 327.287 5.824H324.125V11.808H327.287ZM345.342 5.79V10.618H353.128V15.106H345.342V20.342H354.148V25H339.528V1.132H354.148V5.79H345.342ZM370.094 25L365.13 15.99H363.736V25H357.922V1.132H367.68C369.562 1.132 371.16 1.46067 372.474 2.118C373.812 2.77533 374.809 3.682 375.466 4.838C376.124 5.97133 376.452 7.24067 376.452 8.646C376.452 10.2327 375.999 11.6493 375.092 12.896C374.208 14.1427 372.894 15.0267 371.148 15.548L376.656 25H370.094ZM363.736 11.876H367.34C368.406 11.876 369.199 11.6153 369.72 11.094C370.264 10.5727 370.536 9.836 370.536 8.884C370.536 7.97733 370.264 7.26333 369.72 6.742C369.199 6.22067 368.406 5.96 367.34 5.96H363.736V11.876ZM397.272 1.132V5.79H390.948V25H385.134V5.79H378.81V1.132H397.272ZM408.826 25.238C407.081 25.238 405.517 24.9547 404.134 24.388C402.751 23.8213 401.641 22.9827 400.802 21.872C399.986 20.7613 399.555 19.424 399.51 17.86H405.698C405.789 18.744 406.095 19.424 406.616 19.9C407.137 20.3533 407.817 20.58 408.656 20.58C409.517 20.58 410.197 20.3873 410.696 20.002C411.195 19.594 411.444 19.0387 411.444 18.336C411.444 17.7467 411.24 17.2593 410.832 16.874C410.447 16.4887 409.959 16.1713 409.37 15.922C408.803 15.6727 407.987 15.3893 406.922 15.072C405.381 14.596 404.123 14.12 403.148 13.644C402.173 13.168 401.335 12.4653 400.632 11.536C399.929 10.6067 399.578 9.394 399.578 7.898C399.578 5.67667 400.383 3.94267 401.992 2.696C403.601 1.42667 405.698 0.792 408.282 0.792C410.911 0.792 413.031 1.42667 414.64 2.696C416.249 3.94267 417.111 5.688 417.224 7.932H410.934C410.889 7.16133 410.605 6.56067 410.084 6.13C409.563 5.67667 408.894 5.45 408.078 5.45C407.375 5.45 406.809 5.64267 406.378 6.028C405.947 6.39067 405.732 6.92333 405.732 7.626C405.732 8.39667 406.095 8.99733 406.82 9.428C407.545 9.85867 408.679 10.3233 410.22 10.822C411.761 11.3433 413.008 11.842 413.96 12.318C414.935 12.794 415.773 13.4853 416.476 14.392C417.179 15.2987 417.53 16.466 417.53 17.894C417.53 19.254 417.179 20.4893 416.476 21.6C415.796 22.7107 414.799 23.5947 413.484 24.252C412.169 24.9093 410.617 25.238 408.826 25.238Z" fill="white"/>
</svg>
