<svg version="1.1" id="Layer_1" xmlns="http://www.w3.org/2000/svg" xmlns:xlink="http://www.w3.org/1999/xlink" x="0px" y="0px"
	 width="100%" viewBox="0 0 1200 675" xml:space="preserve">
<path fill="#EA1F27" opacity="1.000000" stroke="none"
	d="
M938.000000,676.000000
	C713.306458,676.000000 488.612946,676.000000 263.459564,675.536133
	C262.999817,450.381500 262.999908,225.690750 263.000000,1.000000
	C487.693512,1.000000 712.387024,1.000000 937.540405,1.463884
	C938.000183,226.618515 938.000061,451.309265 938.000000,676.000000
M624.127319,384.136078
	C624.002502,384.009979 623.877625,383.883911 623.786316,382.989410
	C630.961792,360.470367 638.137268,337.951294 645.502930,314.835297
	C588.992920,314.835297 533.420105,314.835297 476.920074,314.835297
	C484.387695,307.349426 492.940186,303.799835 502.058167,302.059967
	C531.311523,296.477966 560.647278,291.328186 589.946716,285.987000
	C610.231323,282.289154 629.708069,276.316437 647.176270,264.989166
	C663.261353,254.558762 674.767090,240.669449 679.627686,221.723221
	C685.556152,198.614395 677.682251,181.330719 656.127686,171.206329
	C651.633728,169.095490 646.891296,167.404358 642.119446,166.013504
	C623.582214,160.610550 604.504456,159.229538 585.317932,158.679367
	C558.248962,157.903152 531.336243,158.868668 505.024078,166.063492
	C468.613770,176.019531 440.661865,196.502411 424.455750,231.411545
	C423.647644,233.152267 422.937836,234.938660 422.115143,236.860458
	C423.178406,237.045578 423.665833,237.204437 424.153320,237.204742
	C451.484955,237.221634 478.816956,237.280426 506.147186,237.087524
	C507.717102,237.076462 509.942291,235.348633 510.724701,233.832565
	C515.415466,224.743576 521.936951,217.417953 531.663330,214.119232
	C538.670288,211.742783 546.135254,210.261383 553.509766,209.532516
	C564.108948,208.484940 574.864380,208.244720 585.143860,211.963593
	C593.678040,215.051071 595.782593,220.991638 591.378052,228.946274
	C587.215332,236.464310 580.107483,239.363235 572.198669,241.027161
	C543.878357,246.985382 515.296204,251.941620 487.310272,259.195221
	C432.526947,273.394409 394.809692,307.214569 375.585144,360.907990
	C375.060638,362.372894 374.586487,363.855865 373.853027,366.029236
	C432.775574,366.029236 490.813843,366.029236 549.333740,366.029236
	C533.236511,416.424347 517.326965,466.231964 501.332092,516.306641
	C502.629700,516.542725 503.248199,516.753174 503.866882,516.753662
	C528.532043,516.773560 553.197510,516.721008 577.862000,516.848328
	C580.792603,516.863464 581.391602,515.344543 582.090820,513.129944
	C586.996521,497.593170 591.957947,482.073669 597.002686,466.581573
	C597.591248,464.774292 598.372437,462.572235 599.785522,461.564056
	C610.208618,454.127747 620.814941,446.948242 631.853943,439.350464
	C642.071777,465.365784 652.140198,491.000824 662.114258,516.395508
	C697.511597,516.395508 732.526489,516.395508 768.025513,516.395508
	C748.586670,475.014313 729.383118,434.134033 710.031494,392.938599
	C748.102234,367.133392 785.897278,341.515076 824.710815,315.206421
	C822.858459,315.059509 822.269958,314.972107 821.681458,314.971985
	C788.516785,314.965027 755.351868,314.920471 722.187866,315.071564
	C720.100769,315.081055 717.734497,316.230743 715.979919,317.510559
	C685.438660,339.787292 654.972839,362.167480 624.127319,384.136078
z"/>
<path fill="#FFFEFE" opacity="1.000000" stroke="none"
	d="
M624.490601,384.525116
	C654.972839,362.167480 685.438660,339.787292 715.979919,317.510559
	C717.734497,316.230743 720.100769,315.081055 722.187866,315.071564
	C755.351868,314.920471 788.516785,314.965027 821.681458,314.971985
	C822.269958,314.972107 822.858459,315.059509 824.710815,315.206421
	C785.897278,341.515076 748.102234,367.133392 710.031494,392.938599
	C729.383118,434.134033 748.586670,475.014313 768.025513,516.395508
	C732.526489,516.395508 697.511597,516.395508 662.114258,516.395508
	C652.140198,491.000824 642.071777,465.365784 631.853943,439.350464
	C620.814941,446.948242 610.208618,454.127747 599.785522,461.564056
	C598.372437,462.572235 597.591248,464.774292 597.002686,466.581573
	C591.957947,482.073669 586.996521,497.593170 582.090820,513.129944
	C581.391602,515.344543 580.792603,516.863464 577.862000,516.848328
	C553.197510,516.721008 528.532043,516.773560 503.866882,516.753662
	C503.248199,516.753174 502.629700,516.542725 501.332092,516.306641
	C517.326965,466.231964 533.236511,416.424347 549.333740,366.029236
	C490.813843,366.029236 432.775574,366.029236 373.853027,366.029236
	C374.586487,363.855865 375.060638,362.372894 375.585144,360.907990
	C394.809692,307.214569 432.526947,273.394409 487.310272,259.195221
	C515.296204,251.941620 543.878357,246.985382 572.198669,241.027161
	C580.107483,239.363235 587.215332,236.464310 591.378052,228.946274
	C595.782593,220.991638 593.678040,215.051071 585.143860,211.963593
	C574.864380,208.244720 564.108948,208.484940 553.509766,209.532516
	C546.135254,210.261383 538.670288,211.742783 531.663330,214.119232
	C521.936951,217.417953 515.415466,224.743576 510.724701,233.832565
	C509.942291,235.348633 507.717102,237.076462 506.147186,237.087524
	C478.816956,237.280426 451.484955,237.221634 424.153320,237.204742
	C423.665833,237.204437 423.178406,237.045578 422.115143,236.860458
	C422.937836,234.938660 423.647644,233.152267 424.455750,231.411545
	C440.661865,196.502411 468.613770,176.019531 505.024078,166.063492
	C531.336243,158.868668 558.248962,157.903152 585.317932,158.679367
	C604.504456,159.229538 623.582214,160.610550 642.119446,166.013504
	C646.891296,167.404358 651.633728,169.095490 656.127686,171.206329
	C677.682251,181.330719 685.556152,198.614395 679.627686,221.723221
	C674.767090,240.669449 663.261353,254.558762 647.176270,264.989166
	C629.708069,276.316437 610.231323,282.289154 589.946716,285.987000
	C560.647278,291.328186 531.311523,296.477966 502.058167,302.059967
	C492.940186,303.799835 484.387695,307.349426 476.920074,314.835297
	C533.420105,314.835297 588.992920,314.835297 645.502930,314.835297
	C638.137268,337.951294 630.961792,360.470367 623.556519,383.532837
	C623.714722,384.225891 624.102661,384.375519 624.490601,384.525116
z"/>
<path fill="#EA1F27" opacity="1.000000" stroke="none"
	d="
M624.308960,384.330597
	C624.102661,384.375519 623.714722,384.225891 623.539795,383.917053
	C623.877625,383.883911 624.002502,384.009979 624.308960,384.330597
z"/>
</svg>