<?xml version="1.0" encoding="UTF-8" standalone="no"?>
<!DOCTYPE svg PUBLIC "-//W3C//DTD SVG 1.1//EN" "http://www.w3.org/Graphics/SVG/1.1/DTD/svg11.dtd">
<svg width="100%" height="100%" viewBox="0 0 300 300" version="1.1" xmlns="http://www.w3.org/2000/svg" xmlns:xlink="http://www.w3.org/1999/xlink" xml:space="preserve" xmlns:serif="http://www.serif.com/" style="fill-rule:evenodd;clip-rule:evenodd;stroke-linejoin:round;stroke-miterlimit:2;">
    <path d="M149.35,299.655L147.752,299.655C66.343,298.532 -0.016,231.251 -0.016,149.834C-0.016,67.815 67.33,0.257 149.349,0L150.947,0C232.842,0.437 299.985,67.939 299.985,149.835C299.985,232.033 232.346,299.672 150.148,299.672C149.882,299.672 149.615,299.671 149.349,299.67L149.35,299.655ZM149.35,3.965C69.764,3.964 4.341,68.715 3.493,148.301C2.717,228.302 67.814,294.812 147.813,295.754L149.411,295.754C228.981,295.754 294.404,231.018 295.267,151.416C296.025,71.426 230.936,4.932 150.948,3.982L149.349,3.982" style="fill:rgb(61,55,49);fill-rule:nonzero;"/>
    <path d="M297.49,151.404C296.849,211.216 260.052,265.027 204.546,287.321C186.984,294.376 168.232,298.002 149.306,298.002C78.292,298.002 16.769,246.955 3.666,177.16C1.973,168.142 1.12,158.986 1.12,149.81C1.12,68.517 68.015,1.622 149.308,1.622C149.839,1.622 150.369,1.625 150.9,1.631C231.587,2.49 297.499,69.107 297.499,149.799C297.499,150.333 297.496,150.867 297.49,151.401L297.49,151.404Z" style="fill:rgb(61,55,49);fill-rule:nonzero;"/>
    <path d="M260.407,149.82C260.407,149.825 260.407,149.831 260.407,149.836C260.407,210.774 210.263,260.918 149.325,260.918C119.869,260.918 91.59,249.202 70.765,228.37C49.939,207.545 38.226,179.27 38.226,149.819C38.226,112.752 56.779,78.045 87.6,57.453C105.866,45.249 127.347,38.733 149.315,38.733C210.256,38.733 260.403,88.879 260.405,149.82L260.407,149.82Z" style="fill:rgb(237,237,237);fill-rule:nonzero;"/>
    <path d="M254.045,149.707C254.045,149.708 254.045,149.708 254.045,149.709C254.045,207.204 206.734,254.516 149.239,254.516C91.744,254.516 44.433,207.205 44.432,149.711C44.432,149.71 44.432,149.71 44.432,149.709C44.432,92.214 91.743,44.903 149.239,44.903C206.733,44.903 254.044,92.213 254.045,149.707Z" style="fill:rgb(220,66,46);fill-rule:nonzero;"/>
    <path d="M132.629,178.527L127.243,167.993L129.753,167.386L130.791,165.516L122.016,156.853L136.689,166.395L136.097,170.262L132.629,171.606L137.473,178.527L132.629,178.527Z" style="fill:rgb(19,17,12);fill-rule:nonzero;"/>
    <path d="M109.58,106.072L96.123,104.841L64.903,85.419L53.426,77.603L47.767,74.549L42.877,75.319L41.277,77.299L64.38,108.82L73.412,130.398L70.806,141.108L74.337,158.691L72.196,183.018L87.686,200.105L115.4,213.26L134.983,211.662L145.852,215.642L173.872,211.647C173.872,211.647 187.347,210.574 187.952,210.574C188.562,210.574 205.854,203.814 205.854,203.814L221.409,187.83L227.801,164.126L224.636,140.966L226.938,135.306L216.532,113.793C216.532,113.793 240.253,91.159 241.164,91.159C242.074,91.159 257.148,77.683 257.148,77.683L257.148,75.431L253.952,74.519L247.127,77.029L238.112,84.06L216.532,99.517C216.532,99.517 202.77,108.246 202.306,108.246C201.844,108.246 183.333,102.283 183.333,102.283L161.547,99.213L150.358,101.052L135.365,100.284L109.584,106.072L109.58,106.072Z" style="fill:rgb(76,71,145);fill-rule:nonzero;"/>
    <path d="M42.543,78.403L42.543,76.26L50.136,76.26L82.374,99.74L105.985,105.798L126.924,100.444L150.42,101.068L150.02,102.505C150.02,102.505 125.628,106.517 118.754,111.665L120.77,113.102L112.314,117.402L115.174,124.419C111.85,124.664 108.511,124.589 105.201,124.196L113.88,136.984L91.948,134.57L94.3,136.92C91.227,136.742 88.205,137.782 85.892,139.813C83.579,141.844 82.87,155.381 99.959,164.14L104.369,172.036L105.968,187.382C105.968,187.382 107.791,191.392 117.859,190.69C117.859,190.69 112.889,201.799 131.094,209.871L122.415,213.66L104.832,212.06L80.297,196.077L74.638,175.394L72.018,135.816C72.018,135.816 77.579,119.13 78.316,119C78.747,118.905 87.506,120.073 94.683,121.031C86.947,117.418 75.501,111.602 75.501,111.602L42.543,78.401L42.543,78.403Z" style="fill:rgb(41,38,92);fill-rule:nonzero;"/>
    <path d="M257.082,78.403L257.082,76.26L249.489,76.26L217.249,99.74L193.641,105.798L172.703,100.444L149.206,101.068L149.606,102.505C149.606,102.505 173.996,106.517 180.87,111.665L178.856,113.102L187.312,117.402L184.449,124.419C187.774,124.666 191.114,124.591 194.424,124.196L185.744,136.984L207.674,134.57L205.324,136.92C208.397,136.742 211.42,137.782 213.733,139.813C216.046,141.844 216.754,155.381 199.667,164.14L195.257,172.036L193.657,187.382C193.657,187.382 191.834,191.392 181.765,190.69C181.765,190.69 186.735,201.799 168.53,209.871L177.21,213.66L194.792,212.06L219.344,196.077L225.017,175.409L227.64,135.833C227.64,135.833 222.078,119.145 221.34,119.018C220.91,118.922 212.15,120.086 204.973,121.047C212.71,117.435 224.154,111.617 224.154,111.617L257.082,78.403Z" style="fill:rgb(94,101,172);fill-rule:nonzero;"/>
    <path d="M85.955,139.83C85.955,139.83 85.955,145.617 100.341,150.715C114.727,155.813 130.071,166.538 130.071,166.538L129.575,170.44L130.648,175.011L120.161,167.721C120.161,167.721 106.048,165.693 105.551,165.693C105.055,165.693 93.851,167.546 93.34,167.722C92.828,167.897 86.067,154.933 85.892,154.472C85.716,154.007 83.67,143.618 83.67,143.618L85.955,139.83Z" style="fill:rgb(41,38,92);fill-rule:nonzero;"/>
    <path d="M259.128,78.18C259.128,78.18 258.105,67.39 239.228,80.018C220.35,92.644 197.668,99.918 197.668,99.918C190.86,98.712 183.94,98.267 177.034,98.591L178.2,95.537C169.712,93.3 165.75,96.608 165.75,96.608L170.88,91.493C150.5,97.616 149.573,99.133 149.573,99.133C149.573,99.133 148.63,97.536 128.266,91.493L133.381,96.608C133.381,96.608 128.266,93.268 119.777,95.505L122.736,98.96C122.736,98.96 110.554,97.967 101.476,99.918C101.476,99.918 78.826,92.661 59.918,80.018C41.008,67.374 40.002,78.18 40.002,78.18C42.155,81.773 42.917,86.034 42.144,90.151L51.525,108.532C51.525,108.532 56.593,128.287 69.429,136.617C69.429,136.617 69.124,140.867 63.449,144.513C63.449,144.513 70.499,156.869 65.319,162.959C62.419,166.425 59.273,169.679 55.906,172.694C52.539,175.709 70.403,173.684 54.116,183.562C54.116,183.562 67.27,187.78 76.366,196.494C76.366,196.494 71.235,194.144 67.574,194.894C72.551,196.367 76.995,199.256 80.362,203.207C85.492,209.601 101.778,218.391 101.778,218.391C101.778,218.391 113.192,223.634 127.641,251.398C127.641,251.398 132.965,261.82 140.094,263.578C139.928,262.61 139.928,261.622 140.094,260.654C142.676,263.93 145.894,266.649 149.556,268.646C153.212,266.646 156.425,263.927 159.004,260.654C159.17,261.622 159.17,262.61 159.004,263.578C166.131,261.82 171.47,251.398 171.47,251.398C185.856,223.634 197.318,218.391 197.318,218.391C197.318,218.391 213.62,209.569 218.735,203.207C222.102,199.257 226.545,196.369 231.522,194.894C227.846,194.207 222.715,196.494 222.715,196.494C231.827,187.782 244.982,183.562 244.982,183.562C228.693,173.685 243.175,172.694 243.175,172.694C239.813,169.674 236.667,166.421 233.761,162.959C228.598,156.869 235.631,144.513 235.631,144.513C229.972,140.868 229.669,136.617 229.669,136.617C232.496,134.723 235.005,132.392 237.101,129.711C233.845,125.018 230.553,120.35 227.223,115.709C231.615,118.952 236.696,121.141 242.071,122.103C244.388,117.787 246.227,113.232 247.555,108.517L256.939,90.136C256.164,86.018 256.926,81.756 259.08,78.162L259.128,78.18ZM201.664,196.446C188.366,197.484 185.68,195.055 185.68,195.055C185.68,195.055 188.99,200.617 187.28,205.268L184.29,202.424L168.433,209.152L166.323,207.762C162.726,209.332 158.977,210.526 155.135,211.327C151.293,212.128 152.466,212.207 152.369,208.801L152.579,206.627C154.745,206.344 156.883,205.879 158.971,205.236C161.059,204.593 161.976,204.421 162.535,199.914L162.999,196.141L166.612,190.355L161.657,194.591L160.874,196.75C157.072,196.223 153.228,196.072 149.397,196.301C145.561,196.072 141.712,196.223 137.905,196.75L137.122,194.59L132.165,190.355L135.778,196.141L136.242,199.914C136.817,204.421 139.806,205.236 139.806,205.236C141.894,205.879 144.033,206.344 146.2,206.627L146.423,208.801C146.313,212.206 143.643,211.327 143.643,211.327C139.828,210.521 136.105,209.327 132.533,207.763L130.407,209.153L114.567,202.424L111.577,205.268C109.852,200.617 113.177,195.055 113.177,195.055C113.177,195.055 110.539,197.485 97.192,196.446C83.846,195.406 77.915,183.131 77.915,183.131C85.907,186.328 91.662,184.728 91.662,184.728C81.032,178.015 83.447,169.928 83.447,169.928L81.353,169.031L87.026,166.636L79.034,162.894C80.559,160.507 81.642,157.865 82.231,155.094C91.822,155.83 108.061,156.788 123.454,164.684C123.454,164.684 144.794,177.474 160.218,178.815C159.597,179.517 159.061,180.29 158.62,181.117C159.403,180.029 161.193,179.997 162.712,180.22C163.62,180.876 164.608,181.414 165.652,181.82L176.522,185.305C176.476,189.085 176.755,192.858 177.352,196.589C177.352,196.589 177.48,192.003 177.881,185.751L185.775,188.294C185.775,188.294 195.765,191.266 198.835,184.57C201.761,178.176 203.103,173.381 200.69,166.17C205.069,164.813 212.79,161.984 217.489,157.796C218.128,159.545 218.898,161.245 219.791,162.879L211.719,166.62L217.394,169.016L215.314,169.913C215.314,169.913 217.729,178 207.083,184.713C207.083,184.713 212.774,186.311 220.846,183.113C220.846,183.113 214.868,195.406 201.553,196.429L201.664,196.446ZM241.768,83.79C235.376,90.36 227.096,101.9 214.485,109.925L211.288,110.898L209.337,115.536L191.851,131.982L217.712,130.928L212.629,133.326C212.629,133.326 220.43,133.135 224.234,137.082C220.447,138.785 217.604,142.084 216.481,146.082C214.079,154.256 207.775,160.728 199.667,163.344C196.247,157.366 189.228,159.267 189.228,159.267L180.773,162.096C181.254,159.025 182.214,156.048 183.617,153.274L177,154.567C177,154.567 175.673,147.566 175.85,132.189L172.366,158.004L177.304,160.61C177.304,160.61 177.304,161.648 177.16,163.358L163.86,167.787C163.86,167.787 159.497,170.151 159.547,174.675C153.822,174.02 141.387,171.654 124.493,163.038C124.493,163.038 103.713,151.418 82.934,147.821C82.241,143.102 79.18,139.051 74.83,137.096C78.634,133.149 86.435,133.34 86.435,133.34L81.352,130.942L107.229,131.998L89.745,115.55L87.779,110.914L84.579,109.941C71.984,101.947 63.673,90.376 57.312,83.805C53.607,79.922 48.794,77.271 43.532,76.214C50.278,74.406 59.852,84.205 59.852,84.205C87.441,111.283 107.534,119.127 107.534,119.127L105.745,116.06C106.593,113.102 111.724,112.096 111.724,112.096C109.974,111.666 108.141,111.715 106.417,112.239C117.317,100.523 149.574,101.754 149.574,101.754C149.574,101.754 181.877,100.523 192.73,112.239C191.006,111.715 189.173,111.666 187.424,112.096C185.675,112.526 192.571,113.102 193.402,116.06L191.612,119.13C191.612,119.13 211.72,111.28 239.309,84.203C239.309,84.203 248.898,74.469 255.611,76.212C250.354,77.268 245.547,79.919 241.849,83.802" style="fill:rgb(19,17,12);fill-rule:nonzero;"/>
    <path d="M127.403,215.115C127.403,215.115 126.939,227.902 133.893,230.891C132.242,225.95 132.114,220.625 133.524,215.61C134.934,210.595 131.383,213.308 127.403,215.115ZM142.747,252.15C142.747,252.15 137.441,243.933 137.17,239.507C137.17,239.507 135.57,247.499 138.767,252.15C139.989,252.984 141.605,252.984 142.827,252.15M137.649,217.593C138.106,219.739 138.808,221.825 139.743,223.81C140.586,222.215 141.02,220.435 141.004,218.631C140.144,217.724 138.869,217.33 137.647,217.593L137.649,217.593ZM144.984,219.734C144.249,217.064 146.358,222.611 146.584,222.804C147.353,221.941 147.824,220.853 147.925,219.702C146.956,219.412 145.923,219.412 144.954,219.702M145.099,252.422L145.099,246.844C146.748,248.816 147.986,251.099 148.74,253.557C147.41,253.946 145.97,253.497 145.097,252.421L145.099,252.422ZM171.79,215.098C171.79,215.098 172.254,227.887 165.3,230.891C166.953,225.945 167.087,220.616 165.684,215.594C164.281,210.572 167.811,213.31 171.79,215.098ZM156.446,252.95C156.446,252.95 161.752,244.733 162.023,240.307C161.689,238.707 164.039,247.802 160.426,252.95C159.205,253.785 157.587,253.785 156.366,252.95M161.544,218.375C160.714,222.132 160.922,222.292 159.45,224.609C158.607,223.014 158.174,221.235 158.189,219.431C159.047,218.522 160.32,218.121 161.544,218.375ZM154.209,219.735C154.944,217.065 152.85,222.595 152.609,222.804C151.847,221.937 151.377,220.851 151.268,219.702C152.238,219.412 153.271,219.412 154.241,219.702M154.064,252.422L154.064,246.827C152.417,248.802 151.178,251.083 150.418,253.54C151.745,253.933 153.186,253.491 154.064,252.421L154.064,252.422Z" style="fill:rgb(237,237,239);fill-rule:nonzero;"/>
    <path d="M119.539,166.891L115.574,170.024L115.574,179.71L119.539,182.86L123.087,179.038L123.087,170.711L119.537,166.891L119.539,166.891Z" style="fill:rgb(220,66,46);fill-rule:nonzero;"/>
    <path d="M132.47,178.527L127.084,167.993L129.592,167.386L130.632,165.516L121.856,156.853L136.53,166.395L135.939,170.262L132.47,171.606L137.313,178.527L132.47,178.527Z" style="fill:rgb(19,17,12);fill-rule:nonzero;"/>
    <path d="M123.343,167.386C123.343,167.386 110.411,161.919 102.083,161.408L97.449,163.855L100.644,168.185C101.317,170.205 101.704,172.308 101.794,174.435C101.618,176.576 102.769,180.941 106.206,182.251L101.251,183.74C101.251,183.74 128.201,186.248 133.843,180.892C133.843,180.892 139.006,179.117 140.476,181.197C140.476,181.197 136.849,175.586 123.404,167.386L123.341,167.386L123.343,167.386ZM119.491,180.621C117.002,177.034 117.002,172.252 119.491,168.665C121.998,172.246 121.998,177.04 119.491,180.621Z" style="fill:rgb(19,17,12);fill-rule:nonzero;"/>
    <path d="M235.599,144.641L234.48,143.985C234.13,143.746 233.76,143.521 233.41,143.25C232.713,142.724 232.066,142.136 231.476,141.492C230.866,140.827 230.33,140.098 229.876,139.318C229.645,138.925 229.447,138.513 229.285,138.087C229.107,137.633 228.978,137.161 228.901,136.68L228.901,136.264L229.317,135.96C230.657,135.008 231.909,133.939 233.058,132.765C234.208,131.593 235.276,130.343 236.256,129.025L236.256,130.398C234.528,128.114 232.85,125.812 231.156,123.527L226.153,116.589L220.623,108.996L228.214,114.59C229.243,115.353 230.31,116.063 231.411,116.717C232.548,117.366 233.711,117.968 234.897,118.522C236.085,119.076 237.301,119.566 238.54,119.992C239.775,120.414 241.035,120.756 242.312,121.017L241.161,121.592C242.396,119.523 243.516,117.388 244.518,115.197C245.526,112.998 246.386,110.735 247.091,108.421L247.091,108.341C247.906,106.839 248.691,105.304 249.489,103.785C250.289,102.268 251.089,100.715 251.839,99.181C253.396,96.112 254.899,93.016 256.347,89.895L256.347,90.327C256.156,89.271 256.044,88.202 256.011,87.129C255.986,86.061 256.039,84.992 256.171,83.932C256.32,82.849 256.555,81.78 256.874,80.735C257.21,79.649 257.677,78.608 258.265,77.635L258.057,78.385C258.002,78.133 257.921,77.887 257.817,77.651C257.712,77.389 257.572,77.142 257.402,76.916C257.103,76.47 256.696,76.107 256.219,75.86C255.151,75.367 253.956,75.217 252.799,75.429C250.121,75.944 247.552,76.918 245.206,78.307C242.713,79.649 240.411,81.297 237.949,82.927C235.489,84.557 232.994,86.124 230.421,87.497C227.848,88.872 225.257,90.294 222.604,91.542C219.951,92.789 217.298,94.035 214.613,95.139C209.214,97.406 203.697,99.38 198.085,101.052L197.781,101.147L197.526,101.147C195.432,100.651 193.273,100.3 191.131,99.981C188.99,99.662 186.768,99.421 184.579,99.181C182.387,98.946 180.192,98.744 177.994,98.574C175.794,98.398 173.592,98.239 171.389,98.095L171.389,97.775C175.818,97.631 180.246,97.679 184.674,97.775C186.893,97.856 189.11,97.983 191.324,98.158C193.564,98.331 195.794,98.62 198.004,99.023L197.445,99.023C202.817,97.007 208.155,94.723 213.429,92.308C218.659,89.903 223.799,87.306 228.839,84.524C230.099,83.841 231.346,83.132 232.577,82.398C233.809,81.663 235.072,80.976 236.271,80.193C238.683,78.723 241.193,76.996 243.864,75.669C246.559,74.152 249.513,73.149 252.575,72.711C254.309,72.488 256.069,72.83 257.593,73.686C258.765,74.432 259.641,75.562 260.071,76.883C260.22,77.324 260.323,77.781 260.374,78.243L260.374,78.659L260.118,79.009C259.584,79.779 259.144,80.611 258.809,81.487C258.45,82.393 258.172,83.329 257.977,84.284C257.785,85.259 257.673,86.249 257.641,87.242C257.607,88.238 257.645,89.239 257.754,90.232L257.754,90.487L257.658,90.647C255.999,93.646 254.4,96.677 252.862,99.74C252.079,101.34 251.264,102.794 250.529,104.344C249.794,105.896 248.929,107.414 248.242,108.964L248.242,108.853C247.937,110.056 247.596,111.25 247.219,112.433C246.855,113.613 246.466,114.785 246.053,115.949C245.221,118.291 244.261,120.585 243.177,122.821L242.841,123.493L242.026,123.397C240.618,123.223 239.223,122.95 237.853,122.582C236.489,122.223 235.153,121.763 233.856,121.208C231.228,120.119 228.743,118.712 226.456,117.02L228.502,115.054L233.394,122.104C234.992,124.485 236.59,126.898 238.189,129.217L238.669,129.967L238.141,130.607C235.883,133.322 233.181,135.635 230.15,137.447L230.5,136.745C230.533,137.108 230.598,137.465 230.692,137.814C231.039,138.968 231.58,140.054 232.292,141.026C232.77,141.694 233.305,142.32 233.889,142.896C234.177,143.202 234.496,143.473 234.799,143.761L235.792,144.561L235.599,144.641ZM126.844,98.383L123.644,98.383C122.557,98.383 121.535,98.511 120.447,98.591C118.343,98.76 116.243,98.979 114.149,99.246C112.06,99.515 109.976,99.824 107.899,100.174C105.82,100.507 103.748,100.879 101.683,101.292L101.377,101.292L100.996,101.18C95.371,99.502 89.857,97.473 84.486,95.106C79.156,92.659 74.011,89.828 69.091,86.636C67.861,85.853 66.614,85.036 65.415,84.253C64.216,83.47 62.953,82.655 61.755,81.84L58.125,79.441C56.908,78.672 55.66,77.953 54.385,77.284C51.913,75.92 49.198,75.052 46.393,74.727C45.159,74.596 43.914,74.865 42.844,75.494C42.4,75.805 42.034,76.216 41.775,76.693C41.638,76.93 41.531,77.182 41.455,77.445L41.359,77.844C41.347,77.95 41.347,78.056 41.359,78.162L41.104,77.237C41.457,77.72 41.777,78.227 42.062,78.754C42.327,79.274 42.562,79.808 42.764,80.354C43.188,81.387 43.515,82.457 43.74,83.551C43.957,84.658 44.08,85.781 44.108,86.906C44.129,88.033 44.07,89.16 43.932,90.279L43.757,89.176L48.551,98.271C50.149,101.308 51.749,104.344 53.346,107.414L53.442,107.624L53.442,107.862C54.18,110.487 55.06,113.069 56.079,115.598C57.089,118.146 58.247,120.633 59.548,123.046C60.852,125.447 62.355,127.735 64.041,129.886C64.884,130.958 65.786,131.983 66.741,132.956C67.707,133.91 68.732,134.802 69.811,135.626L70.353,136.043L70.353,136.553C70.272,137.052 70.133,137.54 69.939,138.007C69.77,138.441 69.561,138.859 69.315,139.255C68.859,140.039 68.323,140.773 67.715,141.445C67.104,142.08 66.442,142.663 65.734,143.187C65.383,143.443 64.999,143.666 64.646,143.907L63.512,144.546L63.289,144.193L64.262,143.378C64.55,143.091 64.872,142.818 65.159,142.515C65.741,141.924 66.275,141.289 66.757,140.614C67.206,139.956 67.587,139.254 67.893,138.518C68.03,138.159 68.148,137.791 68.243,137.417C68.335,137.089 68.391,136.749 68.404,136.409L68.866,137.337C67.589,136.592 66.366,135.759 65.207,134.842C64.085,133.907 63.018,132.909 62.01,131.852C59.993,129.716 58.188,127.388 56.623,124.902C55.068,122.434 53.69,119.859 52.501,117.196C51.907,115.873 51.373,114.524 50.901,113.153C50.437,111.794 49.941,110.42 49.542,108.933L49.702,109.364C48.102,106.31 46.618,103.226 45.114,100.126L40.623,90.838L40.352,90.294L40.352,89.734C40.512,88.805 40.607,87.864 40.638,86.921C40.668,85.977 40.626,85.031 40.512,84.093C40.333,82.696 39.978,81.326 39.456,80.018C39.301,79.609 39.114,79.213 38.897,78.834L38.592,78.29L38.592,77.908C38.629,77.654 38.682,77.403 38.752,77.156C38.752,76.933 38.897,76.726 38.992,76.517C39.17,76.101 39.39,75.704 39.647,75.334C40.176,74.583 40.871,73.965 41.678,73.528C43.199,72.783 44.923,72.558 46.584,72.888C48.087,73.145 49.553,73.586 50.949,74.2C52.323,74.767 53.657,75.423 54.944,76.166C57.534,77.54 59.931,79.266 62.409,80.752C64.879,82.25 67.424,83.621 70.034,84.86C75.26,87.355 80.584,89.56 85.874,91.814C91.166,94.066 96.487,96.37 101.858,98.384L101.171,98.384C103.298,98.099 105.429,97.854 107.565,97.649C109.692,97.45 111.825,97.322 113.96,97.265C116.069,97.2 118.243,97.265 120.352,97.265C122.494,97.336 124.63,97.543 126.746,97.887L126.842,98.383L126.844,98.383Z" style="fill:rgb(237,237,239);fill-rule:nonzero;"/>
    <path d="M243.144,172.694C240.669,171.314 238.367,169.645 236.286,167.722C235.246,166.776 234.243,165.789 233.282,164.763L232.562,163.998C232.29,163.679 232.04,163.342 231.812,162.99C231.354,162.287 230.999,161.523 230.757,160.72C230.535,159.948 230.39,159.155 230.325,158.354C230.26,157.589 230.26,156.819 230.325,156.054C230.482,154.58 230.82,153.13 231.331,151.738C232.304,149.032 233.786,146.536 235.696,144.386C234.96,147.119 234.225,149.772 233.761,152.377C233.21,154.813 233.21,157.341 233.761,159.777C233.91,160.339 234.135,160.877 234.433,161.377C234.565,161.611 234.714,161.835 234.879,162.047L235.519,162.847L238.076,166.044C239.771,168.218 241.466,170.392 243.096,172.724M63.434,144.514C65.312,146.673 66.766,149.167 67.719,151.866C68.212,153.254 68.534,154.698 68.677,156.164C68.841,157.734 68.695,159.321 68.246,160.834C67.987,161.623 67.627,162.374 67.175,163.07C66.936,163.408 66.679,163.734 66.408,164.045L65.705,164.813C64.747,165.837 63.744,166.818 62.699,167.753C60.636,169.674 58.343,171.334 55.873,172.693C57.473,170.375 59.183,168.201 60.861,166.043L63.403,162.847L64.043,162.047C64.215,161.833 64.375,161.608 64.52,161.375C64.807,160.903 65.038,160.399 65.209,159.873C65.756,157.448 65.756,154.93 65.209,152.505C64.778,149.9 64.073,147.262 63.356,144.513M222.765,196.493C224.019,194.666 225.489,192.996 227.143,191.522C228.787,190.033 230.557,188.69 232.434,187.509C236.197,185.116 240.275,183.261 244.551,181.995L244.087,185.528C242.722,184.677 241.419,183.732 240.186,182.699C239.553,182.156 238.951,181.58 238.38,180.972C237.76,180.322 237.223,179.598 236.782,178.815C236.533,178.368 236.345,177.89 236.223,177.393C236.078,176.815 236.078,176.211 236.223,175.633C236.393,175.074 236.713,174.57 237.149,174.179C237.518,173.862 237.941,173.613 238.397,173.444C239.183,173.135 240.014,172.957 240.857,172.917C241.657,172.855 242.461,172.882 243.255,172.997C241.817,173.414 240.457,174.063 239.227,174.916C238.716,175.33 238.427,175.826 238.493,176.114C238.58,176.561 238.798,176.971 239.115,177.298C240.068,178.291 241.142,179.16 242.312,179.886C243.546,180.705 244.81,181.478 246.101,182.203L249.761,184.314L245.637,185.736C243.751,186.391 241.737,187.158 239.819,187.958C237.901,188.758 235.967,189.556 234.049,190.483C232.145,191.391 230.258,192.334 228.389,193.312L226.968,194.064L225.576,194.864C225.095,195.114 224.626,195.386 224.17,195.679C223.711,195.976 223.236,196.248 222.748,196.494" style="fill:rgb(237,237,239);fill-rule:nonzero;"/>
    <path d="M56.144,172.549C56.933,172.442 57.731,172.415 58.526,172.469C59.371,172.507 60.203,172.686 60.989,172.997C61.443,173.177 61.863,173.431 62.235,173.747C62.678,174.133 63.001,174.637 63.163,175.202C63.313,175.775 63.313,176.374 63.163,176.945C63.048,177.445 62.857,177.924 62.603,178.367C62.169,179.154 61.631,179.879 61.004,180.523C60.439,181.137 59.836,181.714 59.198,182.251C57.968,183.28 56.671,184.226 55.314,185.081L54.914,181.581C57.032,182.277 59.099,183.121 61.099,184.106C63.083,185.075 65.001,186.175 66.839,187.399C68.685,188.618 70.427,189.987 72.049,191.491C73.682,192.985 75.137,194.664 76.383,196.494C75.902,196.238 75.423,195.95 74.959,195.679C74.505,195.377 74.035,195.099 73.552,194.847L72.178,194.031C71.698,193.795 71.229,193.54 70.771,193.264C68.917,192.253 67.041,191.284 65.144,190.355C63.258,189.445 61.355,188.517 59.422,187.67C57.528,186.828 55.614,186.028 53.684,185.272L49.8,183.77L53.283,181.756C54.571,181.024 55.834,180.251 57.072,179.437C58.242,178.712 59.317,177.843 60.269,176.849C60.582,176.527 60.799,176.124 60.891,175.681C60.891,175.378 60.668,174.883 60.157,174.467C58.925,173.617 57.565,172.97 56.129,172.549M218.848,203.064C219.45,201.863 220.219,200.753 221.133,199.769C222.029,198.751 223.05,197.849 224.171,197.085C226.391,195.494 228.898,194.349 231.554,193.713L231.554,195.95C230.88,195.818 230.195,195.754 229.508,195.759C228.772,195.757 228.036,195.793 227.304,195.869C226.552,195.869 225.801,196.062 225.034,196.158L222.7,196.494C223.341,196.015 224.026,195.597 224.746,195.247C225.464,194.881 226.206,194.566 226.968,194.303C228.568,193.724 230.278,193.516 231.97,193.696L237.197,194.367L232.035,195.965C230.864,196.343 229.712,196.775 228.582,197.261C227.44,197.755 226.315,198.287 225.21,198.859C224.101,199.429 223.033,200.075 222.013,200.792C221.005,201.497 219.934,202.279 218.816,203.064" style="fill:rgb(237,237,239);fill-rule:nonzero;"/>
    <path d="M76.365,196.494L74.159,196.238C73.424,196.158 72.722,196.078 72.002,196.03C70.662,195.914 69.313,195.978 67.99,196.22L67.99,194C69.313,194.331 70.6,194.797 71.826,195.39C73.036,195.965 74.193,196.65 75.279,197.437C76.365,198.226 77.362,199.131 78.251,200.137C79.151,201.122 79.906,202.231 80.491,203.43C79.402,202.648 78.429,201.832 77.293,201.16C76.157,200.489 75.182,199.802 74.096,199.21C73.022,198.61 71.911,198.076 70.771,197.612C69.665,197.108 68.534,196.66 67.383,196.269L62.588,194.671L67.526,193.999C69.142,193.806 70.782,193.981 72.321,194.511C73.05,194.743 73.76,195.026 74.447,195.358C75.125,195.692 75.772,196.082 76.383,196.524M80.41,203.142C82.418,205.197 84.66,207.011 87.09,208.545C89.473,210.135 91.915,211.633 94.412,213.037C96.898,214.458 99.418,215.817 101.971,217.114L102.931,217.593C103.299,217.768 103.603,217.977 103.939,218.167C104.579,218.568 105.201,219 105.792,219.431C106.98,220.314 108.117,221.263 109.197,222.275C113.454,226.292 117.26,230.762 120.547,235.605C123.861,240.39 126.892,245.364 129.625,250.503L129.625,250.393C130.088,251.143 130.407,251.767 130.775,252.406C131.144,253.046 131.51,253.685 131.879,254.292C132.609,255.509 133.41,256.683 134.276,257.808C135.101,258.881 136.039,259.862 137.074,260.734C137.996,261.535 139.089,262.114 140.27,262.427L137.905,263.947L138.273,262.043C138.416,261.403 138.544,260.782 138.72,260.094L139.693,256.321L142.155,259.407C143.385,260.928 144.744,262.339 146.217,263.626C147.624,264.901 149.199,265.977 150.899,266.823L149.302,266.823C150.091,266.444 150.849,266.006 151.572,265.513C152.37,265.002 153.154,264.469 153.921,263.913C154.707,263.366 155.469,262.785 156.205,262.171L157.278,261.261L157.774,260.814L157.981,260.606L158.109,260.478L160.681,257.92L161.529,261.118L162.216,263.834L159.884,262.444C161.052,262.108 162.139,261.537 163.079,260.766C164.129,259.919 165.083,258.96 165.925,257.906C166.807,256.805 167.614,255.646 168.339,254.436C169.062,253.223 169.713,251.968 170.289,250.679L170.289,250.551L172.893,245.869L175.627,241.265C176.602,239.763 177.56,238.261 178.568,236.789C179.576,235.319 180.599,233.832 181.765,232.426C183.902,229.535 186.242,226.8 188.766,224.241C190.04,222.959 191.373,221.738 192.761,220.581C193.481,220.023 194.201,219.463 194.953,218.982C195.727,218.427 196.545,217.935 197.398,217.512C201.249,215.493 205.018,213.324 208.698,211.008C210.545,209.862 212.347,208.646 214.101,207.362C215.886,206.121 217.536,204.697 219.024,203.112C217.681,204.863 216.159,206.47 214.484,207.906C212.887,209.346 211.097,210.702 209.337,212.014C207.57,213.314 205.769,214.566 203.935,215.77C202.107,216.993 200.252,218.176 198.373,219.318C197.663,219.719 196.991,220.179 196.359,220.693C195.67,221.204 195.033,221.781 194.393,222.293C193.118,223.457 191.901,224.683 190.748,225.968C188.45,228.567 186.314,231.306 184.353,234.168C183.333,235.558 182.42,237.062 181.462,238.516C180.502,239.971 179.639,241.488 178.744,242.99L176.173,247.546L173.728,252.198L173.728,252.038C173.115,253.504 172.41,254.929 171.617,256.306C170.848,257.694 169.972,259.019 168.996,260.27C167.994,261.586 166.834,262.772 165.541,263.803C164.165,264.929 162.57,265.756 160.857,266.231L159.019,266.695L158.523,264.826L157.805,262.141L161.21,262.861L160.842,263.274L160.536,263.595L159.931,264.155L158.733,265.16C157.931,265.817 157.133,266.44 156.318,267.048C155.503,267.655 154.721,268.247 153.808,268.821C152.892,269.428 151.931,269.963 150.932,270.421L150.117,270.787L149.287,270.403C147.258,269.382 145.376,268.092 143.692,266.567C142.038,265.103 140.513,263.499 139.136,261.772L142.571,261.085C142.428,261.612 142.301,262.236 142.157,262.828L141.789,264.666L141.373,266.664L139.424,266.168C137.696,265.697 136.096,264.845 134.74,263.675C133.497,262.614 132.382,261.413 131.415,260.095C130.48,258.836 129.62,257.523 128.842,256.162C128.457,255.498 128.084,254.827 127.723,254.149C127.394,253.513 127.052,252.884 126.7,252.261L126.7,252.166C124.095,247.1 121.314,242.128 118.228,237.348C117.46,236.15 116.63,234.968 115.863,233.818C115.447,233.241 115.048,232.648 114.616,232.09L113.129,230.475C111.42,228.232 109.573,226.097 107.599,224.083C106.617,223.089 105.587,222.145 104.513,221.252C103.969,220.805 103.425,220.389 102.916,219.99C102.629,219.815 102.339,219.607 102.068,219.462L101.141,218.919C98.647,217.451 96.19,215.922 93.773,214.331C91.358,212.749 88.978,211.136 86.724,209.265C84.415,207.515 82.327,205.492 80.505,203.239" style="fill:rgb(237,237,239);fill-rule:nonzero;"/>
    <path d="M123.95,117.133C123.949,117.133 123.949,117.133 123.948,117.133C121.704,117.133 119.858,115.287 119.858,113.043C119.858,113.042 119.858,113.041 119.858,113.04L119.858,69.245L118.754,69.245C118.748,69.245 118.742,69.245 118.736,69.245C116.489,69.245 114.638,67.399 114.632,65.152L114.632,55.77C114.59,53.741 116.102,51.986 118.115,51.726C121.472,51.406 122.383,46.051 122.398,46.003C122.606,44.495 123.912,43.361 125.435,43.367L138.048,43.367C138.053,43.367 138.058,43.367 138.063,43.367C140.3,43.367 142.14,45.207 142.14,47.444C142.14,47.448 142.14,47.453 142.14,47.457L142.14,112.994C142.14,115.239 140.293,117.086 138.048,117.086L123.95,117.133Z" style="fill:rgb(220,66,46);fill-rule:nonzero;"/>
    <path d="M138.048,46.434L125.437,46.434C125.437,46.434 124.349,54.044 118.579,54.761C118.076,54.826 117.696,55.261 117.701,55.769L117.701,65.152C117.7,65.712 118.161,66.174 118.721,66.176L122.927,66.176L122.927,113.073C122.928,113.633 123.39,114.094 123.95,114.094L138.048,114.094C138.608,114.094 139.07,113.633 139.071,113.073L139.071,47.537C139.071,47.533 139.071,47.53 139.071,47.526C139.071,46.971 138.614,46.514 138.059,46.514C138.055,46.514 138.052,46.514 138.048,46.514" style="fill:rgb(237,237,237);fill-rule:nonzero;"/>
    <path d="M161.08,117.26C154.463,117.26 149.38,115.486 145.977,111.97C143.386,109.282 141.926,105.697 141.9,101.964L141.9,85.372C141.9,85.371 141.9,85.37 141.9,85.369C141.9,83.125 143.746,81.279 145.99,81.279C145.991,81.279 145.991,81.279 145.992,81.279L153.552,81.279L153.552,74.885L146.263,74.885C144.01,74.885 142.156,73.032 142.155,70.779L142.155,57.991C142.155,47.105 152.098,43.256 160.601,43.256L161.193,43.256C168.257,43.256 173.628,45.092 177.177,48.688C179.648,51.184 181.078,54.53 181.174,58.041L181.174,68.621C181.039,72.105 179.674,75.43 177.322,78.004C179.479,80.629 180.819,83.831 181.174,87.21L181.174,102.06C181.174,103.657 180.597,117.276 161.145,117.276" style="fill:rgb(220,66,46);fill-rule:nonzero;"/>
    <path d="M178.041,68.428L178.041,57.958C178.041,57.958 178.297,46.306 161.098,46.306C161.098,46.306 145.209,45.556 145.209,57.958L145.209,70.747C145.209,70.752 145.209,70.757 145.209,70.762C145.209,71.315 145.664,71.77 146.217,71.77C146.222,71.77 146.227,71.77 146.232,71.77L158.492,71.77C158.497,71.77 158.502,71.77 158.507,71.77C159.06,71.77 159.515,71.315 159.515,70.762C159.515,70.757 159.515,70.752 159.515,70.747L159.515,58.999C159.515,58.438 159.977,57.976 160.538,57.976L161.561,57.976C162.122,57.976 162.584,58.438 162.584,58.999C162.584,58.999 162.584,70.075 162.584,70.075C162.584,71.759 161.198,73.145 159.514,73.145C159.509,73.145 159.505,73.145 159.5,73.145L157.612,73.145C157.051,73.145 156.59,73.606 156.589,74.167L156.589,81.52C156.589,82.081 157.051,82.543 157.612,82.543L159.482,82.543C159.487,82.543 159.491,82.543 159.496,82.543C161.181,82.543 162.567,83.929 162.567,85.614C162.567,85.618 162.567,85.623 162.567,85.627L162.567,101.004C162.567,101.565 162.105,102.027 161.544,102.027L160.521,102.027C160.517,102.027 160.512,102.027 160.508,102.027C159.946,102.027 159.484,101.566 159.483,101.004L159.483,85.356C159.483,84.795 159.021,84.333 158.46,84.333L145.929,84.333C145.368,84.333 144.906,84.795 144.906,85.356L144.906,102.027C144.906,102.027 144.555,114.174 161.066,114.174C177.576,114.174 178.009,103.419 178.009,102.027L178.009,87.417C178.009,87.417 177.482,80.752 172.397,77.939C175.831,75.965 177.97,72.31 178.009,68.349" style="fill:rgb(237,237,237);fill-rule:nonzero;"/>
    <path d="M161.514,282.871L156.717,282.871L152.258,286.149L153.314,282.871L145.528,282.871C146.003,282.459 146.596,282.207 147.223,282.151L150.787,281.529C152.524,281.417 154.068,280.368 154.814,278.796C155.646,276.206 152.945,275.599 149.894,275.599C147.527,275.599 144.329,276.03 143.02,279.228L147.032,279.228C147.528,278.028 148.63,277.931 149.605,277.931C150.579,277.931 151.06,278.14 150.899,278.684C150.743,279.086 150.371,279.366 149.941,279.404L147.015,279.994C144.119,280.337 141.684,282.358 140.812,285.141L148.901,285.141L146.664,292.094L150.34,292.094L151.14,289.601L152.737,288.529L154.129,292.094L158.924,292.094L156.286,286.42L161.514,282.871ZM31.994,152.313L25.904,151.419L31.291,174.211L10.367,139.686L17.64,140.644L12.268,117.931L31.994,152.313ZM267.504,152.313L273.594,151.419L268.206,174.211L289.146,139.686L281.872,140.644L287.243,117.931L267.504,152.313Z" style="fill:rgb(220,66,46);fill-rule:nonzero;"/>
    <path d="M83.414,47.537L76.812,53.179L71.219,46.642L62.348,54.219L67.94,60.757L61.405,66.368L55.841,59.86L53.172,60.373L54.068,57.783L48.92,51.773L55.474,46.18L60.605,52.188L69.477,44.611L64.347,38.587L70.931,32.945L76.173,39.065L78.683,38.715L77.915,41.112L83.412,47.537L83.414,47.537ZM114.616,33.151L106.816,36.621L103.761,33.998L93.949,38.394L93.853,42.421L86.085,45.876L87.138,36.172L85.029,35.532L87.474,33.025L88.482,23.835L96.747,20.143L104.177,25.562L107.646,25.562L106.72,27.447L114.614,33.155L114.616,33.151ZM101.652,32.241L94.285,26.037L93.949,35.628L101.652,32.241ZM146.262,28.597L139.056,29.62L124.318,19.757C124.652,20.12 124.895,20.559 125.021,21.037L126.46,31.41L118.468,32.544L117.332,24.248L114.966,23.306L116.981,21.706L115.893,13.907L123.103,12.884L137.873,22.475C137.539,22.117 137.298,21.684 137.17,21.212L135.763,11.062L143.755,9.927L144.825,17.663L147.223,18.702L145.177,20.302L146.265,28.597L146.262,28.597ZM180.086,31.345C179.895,32.496 178.072,32.8 174.619,32.242L156.734,29.412C153.361,28.885 151.762,28.037 151.938,26.869L152.93,20.572L150.834,18.719L153.409,17.599L154.383,11.397C154.575,10.231 156.381,9.927 159.834,10.471L177.608,13.283C181.063,13.843 182.708,14.69 182.515,15.858L181.876,19.9L173.34,18.543L173.869,15.183L162.791,13.428L160.554,27.526L171.63,29.284L172.477,23.977L166.083,22.97L166.467,20.557L181.332,22.922L180.086,31.345ZM212.087,46.659L204.319,43.128L204.319,39.08L194.504,34.621L191.42,37.227L183.684,33.711L191.595,28.084L190.748,26.134L194.201,26.246L201.761,20.875L210.009,24.615L210.904,33.855L213.301,36.459L211.192,36.939L212.087,46.659ZM204.095,36.348L203.872,26.758L196.422,32.88L204.095,36.348ZM237.918,68.044L231.125,62.179L229.749,49.232L230.869,47.92L237.261,53.437L241.226,48.833L233.011,41.736L222.093,54.427L215.571,48.8L221.15,42.326L220.383,39.946L222.893,40.297L228.103,34.254L245.413,49.167C248.034,51.427 248.962,53.024 248.195,53.964L244.039,58.758L244.566,60.852L242.425,60.47L236.383,55.29L237.918,68.044Z" style="fill:rgb(237,237,239);fill-rule:nonzero;"/>
</svg>
